<?xml version="1.0" standalone="no"?>
<!DOCTYPE svg PUBLIC "-//W3C//DTD SVG 20010904//EN"
 "http://www.w3.org/TR/2001/REC-SVG-20010904/DTD/svg10.dtd">
<svg version="1.0" xmlns="http://www.w3.org/2000/svg"
 width="161.000000pt" height="161.000000pt" viewBox="0 0 161.000000 161.000000"
 preserveAspectRatio="xMidYMid meet">
<metadata>
Created by potrace 1.11, written by Peter Selinger 2001-2013
</metadata>
<g transform="translate(0.000000,161.000000) scale(0.100000,-0.100000)"
fill="#000000" stroke="none">
<path d="M1424 1388 c9 -5 23 -5 32 0 12 6 7 9 -16 9 -23 0 -28 -3 -16 -9z"/>
<path d="M468 1364 c-9 -9 -31 -17 -50 -18 -18 -1 -39 -5 -47 -10 -7 -5 -34
-14 -60 -21 -47 -12 -48 -13 -42 -72 0 -7 15 -28 31 -47 37 -41 35 -72 -5 -95
-16 -9 -41 -26 -54 -38 -14 -13 -29 -23 -33 -23 -14 0 -109 -209 -114 -251 -3
-28 2 -66 14 -101 16 -51 32 -77 96 -151 10 -12 26 -31 35 -43 16 -20 166 -94
190 -94 14 0 73 -40 84 -57 9 -15 99 -42 151 -47 36 -2 60 8 104 48 33 29 31
29 299 22 177 -4 271 14 355 67 31 21 61 37 66 37 9 0 16 19 27 70 2 8 10 33
18 55 15 41 16 166 3 235 -14 73 -46 124 -102 165 -77 56 -135 76 -239 82
-138 7 -246 7 -285 -1 -19 -4 -47 -8 -61 -9 -18 0 -25 -5 -22 -14 3 -7 9 -13
14 -13 5 0 9 -7 9 -15 0 -8 7 -15 14 -15 16 0 66 -60 66 -79 0 -7 3 -10 8 -8
9 6 10 -176 1 -183 -4 -3 -9 -57 -11 -120 -5 -119 -16 -160 -43 -156 -16 2
-44 26 -31 26 5 0 2 8 -5 17 -8 9 -9 14 -3 10 7 -4 15 0 18 8 4 13 2 14 -14 5
-11 -6 -20 -15 -20 -20 0 -6 -5 -10 -11 -10 -6 0 -25 -16 -43 -35 -25 -26 -39
-33 -52 -28 -57 21 -50 62 21 130 30 28 59 53 65 55 12 4 15 18 25 123 8 77 9
92 6 134 0 10 -43 61 -95 114 -52 52 -98 103 -104 113 -14 25 10 99 43 134 14
15 23 33 20 41 -7 18 -67 42 -114 45 -19 1 -37 6 -40 11 -7 11 -53 43 -61 43
-3 0 -13 -7 -22 -16z m83 -332 c26 -10 40 -28 80 -99 44 -77 25 -318 -30 -382
-25 -28 -69 -33 -101 -12 -26 18 -88 39 -129 45 -13 1 -34 13 -47 25 -44 43
-70 187 -46 251 5 14 9 27 8 30 0 3 7 16 17 30 9 13 17 31 17 38 0 19 37 64
63 79 25 13 129 10 168 -5z m690 -67 c44 -33 74 -78 95 -143 17 -54 19 -75 12
-135 -5 -40 -13 -86 -18 -102 -13 -38 -68 -107 -81 -100 -5 4 -9 2 -9 -4 0
-19 -55 -17 -85 3 -36 25 -48 37 -55 56 -9 26 -8 353 1 384 18 64 85 83 140
41z"/>
<path d="M380 260 c0 -5 5 -10 11 -10 5 0 7 5 4 10 -3 6 -8 10 -11 10 -2 0 -4
-4 -4 -10z"/>
</g>
</svg>
